<?xml version="1.0" standalone="no"?>
<!DOCTYPE svg PUBLIC "-//W3C//DTD SVG 20010904//EN"
 "http://www.w3.org/TR/2001/REC-SVG-20010904/DTD/svg10.dtd">
<svg version="1.0" xmlns="http://www.w3.org/2000/svg"
 width="500.000000pt" height="500.000000pt" viewBox="0 0 500.000000 500.000000"
 preserveAspectRatio="xMidYMid meet">
<metadata>
Created by potrace 1.14, written by Peter Selinger 2001-2017
</metadata>
<g transform="translate(0.000000,500.000000) scale(0.100000,-0.100000)"
fill="#000000" stroke="none">
<path d="M3145 4431 c-186 -30 -302 -85 -410 -195 -117 -119 -183 -251 -226
-451 -35 -169 -41 -358 -36 -1280 3 -753 6 -890 20 -950 74 -330 262 -540 563
-627 70 -20 100 -23 274 -23 173 0 205 3 285 24 265 69 431 213 511 443 53
150 56 184 61 636 l5 422 -351 0 -350 0 -3 -377 -3 -378 -25 -49 c-34 -69 -67
-90 -135 -90 -68 0 -101 21 -135 90 l-25 49 0 1000 0 1000 24 48 c29 59 67 81
143 81 67 1 103 -20 133 -80 19 -36 20 -62 23 -366 l3 -328 345 0 346 0 -4
383 c-5 433 -9 463 -90 627 -60 123 -177 238 -308 303 -143 71 -223 89 -420
93 -91 1 -187 -1 -215 -5z"/>
<path d="M890 2670 l0 -1750 705 0 705 0 0 300 0 300 -360 0 -360 0 0 1450 0
1450 -345 0 -345 0 0 -1750z"/>
</g>
</svg>
